HIERARCHY
ROOT Hips
{
  OFFSET 16.9975 41.2473 -6.599
  CHANNELS 6 Xposition Yposition Zposition Zrotation Xrotation Yrotation
  JOINT LeftHip
  {
    OFFSET 3.43 2.84217e-014 2.22045e-015
    CHANNELS 3 Zrotation Xrotation Yrotation
    JOINT LeftKnee
    {
      OFFSET 3.29584e-015 -18.47 1.66168e-013
      CHANNELS 3 Zrotation Xrotation Yrotation
      JOINT LeftAnkle
      {
        OFFSET -1.50803e-012 -17.95 2.00426e-012
        CHANNELS 3 Zrotation Xrotation Yrotation
        End Site
        {
          OFFSET 0 -3.12 0
        }
      }
    }
  }
  JOINT RightHip
  {
    OFFSET -3.43 2.84217e-014 0
    CHANNELS 3 Zrotation Xrotation Yrotation
    JOINT RightKnee
    {
      OFFSET 3.68151e-014 -18.47 -1.41419e-013
      CHANNELS 3 Zrotation Xrotation Yrotation
      JOINT RightAnkle
      {
        OFFSET 1.5536e-012 -17.95 -2.08018e-012
        CHANNELS 3 Zrotation Xrotation Yrotation
        End Site
        {
          OFFSET 0 -3.12 0
        }
      }
    }
  }
  JOINT Chest
  {
    OFFSET -2.4869e-014 4.57 1.02141e-014
    CHANNELS 3 Zrotation Xrotation Yrotation
    JOINT Chest2
    {
      OFFSET 0 6.57 -1.34648e-015
      CHANNELS 3 Zrotation Xrotation Yrotation
      JOINT LeftCollar
      {
        OFFSET 1.06 4.19 1.76
        CHANNELS 3 Zrotation Xrotation Yrotation
        JOINT LeftShoulder
        {
          OFFSET 5.81 -1.42e-014 2.56656e-015
          CHANNELS 3 Zrotation Xrotation Yrotation
          JOINT LeftElbow
          {
            OFFSET 1.21038e-013 -12.08 -2.06804e-014
            CHANNELS 3 Zrotation Xrotation Yrotation
            JOINT LeftWrist
            {
              OFFSET 4.17344e-013 -9.82 5.26938e-014
              CHANNELS 3 Zrotation Xrotation Yrotation
              End Site
              {
                OFFSET 0 -7.37 0
              }
            }
          }
        }
      }
      JOINT RightCollar
      {
        OFFSET -1.06 4.19 1.76
        CHANNELS 3 Zrotation Xrotation Yrotation
        JOINT RightShoulder
        {
          OFFSET -6.06 -1.42801e-014 6.12109e-015
          CHANNELS 3 Zrotation Xrotation Yrotation
          JOINT RightElbow
          {
            OFFSET 1.02318e-015 -11.08 -3.98098e-014
            CHANNELS 3 Zrotation Xrotation Yrotation
            JOINT RightWrist
            {
              OFFSET -6.71072e-014 -9.82 -1.2777e-013
              CHANNELS 3 Zrotation Xrotation Yrotation
              End Site
              {
                OFFSET 0 -7.14001 0
              }
            }
          }
        }
      }
      JOINT Neck
      {
        OFFSET 0 4.05 3.96765e-015
        CHANNELS 3 Zrotation Xrotation Yrotation
        JOINT Head
        {
          OFFSET 6.73499e-015 5.19 1.42186e-014
          CHANNELS 3 Zrotation Xrotation Yrotation
          End Site
          {
            OFFSET 0 4.14001 0
          }
        }
      }
    }
  }
}
MOTION
Frames:	19
Frame Time:	0.0333333
26.6142 40.949 7.57659 -11.6605 -12.1829 170.335 0.972724 -7.21197 13.6917 -3.77444 24.2553 13.2227 -9.28739 13.738 1.11928 -10.671 -19.7906 -3.939 -4.32186 2.85639 8.85091 -0.0770497 3.57365 0.00175205 5.19538 14.8415 -7.94674 9.61603 20.6491 -10.7146 -5.89172 0.478385 -5.01365 76.0166 -65.1579 0.620567 -14.9107 -44.6941 -10.6075 45.3249 -4.00399 -15.181 14.4692 2.18972 11.0686 -56.1266 27.3247 -3.36232 -1.54322 -28.7864 -0.743588 -31.3394 39.4434 -38.0035 -19.195 -1.53419 34.0042 2.34541 -10.4893 26.3585 
26.4807 40.9751 7.78483 -11.5307 -12.6878 172.157 1.13013 -5.96275 14.4838 -3.93409 20.6937 17.1401 -9.13977 12.6541 1.01564 -11.4856 -18.6878 -5.15037 -3.89783 0.170725 7.4239 0.204562 5.16061 -0.00884845 5.16864 14.6011 -8.19897 9.62888 20.2497 -11.0518 -5.99129 0.478536 -4.97074 78.392 -66.3707 1.88402 -15.1485 -44.4193 -10.7296 45.6378 -4.12033 -15.2668 14.5146 2.19519 11.0733 -54.8357 28.3083 -2.83281 -1.50109 -28.4765 -0.715713 -32.3671 39.2824 -37.059 -19.7404 -2.55986 35.418 3.27761 -12.4479 28.0012 
26.3822 41.0112 8.03183 -11.2522 -13.0192 174.426 1.3777 -4.94031 15.2096 -3.77341 17.4055 21.0722 -7.89041 12.0465 0.834695 -12.2838 -18.5684 -6.25009 -3.40252 0.2943 5.49215 -0.0409234 5.28971 0.00191154 5.00282 14.5042 -8.22305 9.57728 20.1254 -11.0704 -4.73351 0.435417 -5.11061 78.2937 -67.1475 2.40371 -15.1969 -43.7477 -10.6374 45.6782 -4.89333 -15.5426 14.927 2.23046 11.0319 -53.602 29.2327 -3.21659 -1.6693 -28.2175 -0.789513 -33.8792 38.879 -35.2564 -18.7776 -4.01761 36.2155 1.88671 -12.2303 29.4792 
26.2499 41.0561 8.3657 -11.0047 -13.5244 176.95 1.95233 -4.96219 15.5058 -4.34116 15.1231 25.917 -5.42323 11.6883 0.554884 -13.3764 -18.6107 -7.69605 -2.80381 0.215317 2.99279 -0.137735 5.93452 0.00703268 4.75886 14.2074 -8.29458 9.2621 19.7452 -11.1577 -4.582 0.459581 -5.47842 79.2086 -66.5722 2.83305 -15.3721 -42.7904 -10.5792 45.676 -5.99935 -15.4792 15.9264 2.45215 11.6969 -53.9235 30.6849 -2.48914 -1.60301 -28.2945 -0.760053 -35.3572 38.3548 -33.0075 -18.7552 -4.96088 36.9005 2.50503 -13.5242 30.4071 
26.094 41.0757 8.75965 -10.052 -14.007 179.829 2.91694 -5.06327 14.7239 -4.4669 13.0934 28.5686 -4.20673 12.0302 0.44247 -14.0783 -18.6383 -9.0137 -2.07024 0.138878 -0.0342819 -0.139658 7.09179 0.00869789 5.0445 13.9624 -8.35915 9.26378 19.3777 -11.4205 -4.61008 0.45086 -5.35925 79.3789 -65.8308 3.11403 -15.1485 -42.2931 -10.3247 45.3534 -4.72509 -15.7554 15.0595 2.33604 11.5549 -53.6268 30.4413 -1.41531 -1.3065 -28.3546 -0.620429 -36.451 36.6825 -30.5352 -18.9685 -5.8502 37.4191 2.43691 -14.7049 31.2394 
25.9594 41.0755 9.20531 -9.35249 -14.1744 -176.612 3.96255 -5.28317 14.7476 -4.8244 11.3677 30.5322 -2.67785 12.9602 0.304647 -14.9726 -18.1034 -10.0016 -1.78295 0.106945 -2.77855 -0.39019 7.21071 0.0245082 4.96123 13.845 -8.40669 9.19785 19.1937 -11.4363 -4.92852 0.496455 -5.71256 80.4945 -64.4626 4.2156 -15.0095 -41.5346 -10.0814 44.5882 -4.10821 -15.3393 14.5029 2.23073 11.2842 -53.8437 30.3553 -0.175926 -1.06789 -29.0628 -0.518842 -36.1482 35.2452 -30.6366 -18.8269 -6.6728 37.5954 1.74259 -15.1846 31.6518 
25.8161 41.0176 9.68916 -8.30373 -14.426 -172.646 5.37226 -6.28725 15.0311 -5.04528 10.6613 31.9896 -1.41939 13.5976 0.169212 -15.7393 -17.6004 -11.0389 -1.30885 0.0639889 -6.5718 -0.700217 7.18567 0.0438014 4.96343 13.4825 -8.30472 9.08692 18.7389 -11.2435 -5.23871 0.590525 -6.57825 80.5585 -62.1571 4.19836 -14.8226 -41.0348 -9.85543 44.209 -3.43793 -14.8329 14.7248 2.28154 11.4429 -55.0195 31.5081 1.0209 -1.04422 -30.5426 -0.530821 -36.9639 34.0436 -29.7253 -19.1099 -6.94329 37.5054 2.18311 -16.2868 31.5573 
25.6352 40.9622 10.2318 -6.95824 -14.3845 -168.055 6.4709 -7.50268 14.2963 -4.82903 9.49966 33.8592 0.271162 14.1471 -0.034246 -16.8153 -16.6472 -12.3557 -0.898944 0.0341104 -9.69832 -0.286407 7.55681 0.0190157 5.45657 13.2596 -8.24255 9.09162 18.4494 -11.3215 -6.46821 0.677152 -6.73953 83.337 -60.5417 5.45639 -15.0429 -39.7141 -9.74423 44.2027 -3.27492 -14.4874 14.1836 2.16388 11.0828 -55.6582 30.9141 1.99913 -0.995361 -31.2322 -0.516058 -38.4451 31.9063 -27.6493 -19.3135 -7.55427 37.4564 2.14516 -15.9865 31.6212 
25.4667 40.8505 10.7903 -5.2844 -14.1968 -163.273 8.39487 -9.57797 14.6479 -4.72375 9.87047 35.5901 1.54919 14.5342 -0.19577 -17.2075 -15.692 -12.8802 -0.857496 0.026223 -13.3528 0.00604844 7.45765 -0.000312149 5.58065 13.0735 -8.19241 9.22174 18.035 -11.3905 -6.74965 0.610654 -5.9301 84.5592 -59.4233 6.44426 -15.3217 -37.9359 -9.55699 45.6827 -2.59181 -14.7086 14.3341 2.23394 11.4027 -57.4148 30.3372 2.76937 -0.814893 -31.6239 -0.427774 -42.8718 28.8562 -25.6273 -19.4615 -8.10853 37.4963 2.32872 -16.7469 31.9799 
25.3061 40.695 11.39 -3.30198 -13.8228 -157.804 10.5985 -11.5481 15.8134 -5.05383 9.2011 38.8551 2.89176 13.2647 -0.337219 -17.4324 -14.5774 -13.3875 -0.706531 0.0161004 -17.6002 0.59102 7.40488 -0.0383384 5.72048 12.6272 -7.88784 9.24962 17.3765 -11.1459 -7.2537 0.618647 -5.75883 84.8293 -58.3812 6.95494 -15.6402 -35.5206 -9.24119 47.6941 -3.1506 -17.236 14.1996 2.2563 11.6139 -58.6639 30.7319 4.00399 -0.913904 -32.7751 -0.493992 -47.138 27.1217 -22.7422 -18.8708 -8.02289 37.1976 0.721512 -17.0468 31.8644 
25.0747 40.5355 11.9571 -1.15301 -12.9317 -151.897 12.917 -13.8175 17.4689 -5.65222 8.78231 42.4219 4.24069 12.1686 -0.450544 -17.3935 -12.9393 -13.7385 -0.610641 0.0089186 -22.4426 1.43505 7.70196 -0.0970285 5.90504 12.3259 -7.45338 9.34231 16.8799 -10.689 -6.88416 0.640472 -6.14713 85.604 -56.3662 7.74948 -15.1504 -35.553 -8.94716 45.1784 -2.13969 -15.4724 14.1859 2.2295 11.4648 -60.2781 30.6572 5.79258 -0.73745 -33.7478 -0.409948 -49.2839 24.6826 -20.7886 -19.1991 -8.97311 37.4597 3.03705 -17.5224 32.2817 
24.7809 40.3244 12.468 1.16833 -11.1391 -145.471 15.6197 -16.1185 20.0001 -6.88421 8.44366 46.7538 5.81345 9.74742 -0.49634 -16.7409 -10.3687 -13.7205 -0.613517 0.00598499 -27.7186 3.06844 7.97099 -0.213188 6.3082 12.0456 -6.83224 9.55018 16.3255 -10.0427 -6.61117 0.618564 -6.07594 86.0207 -55.4663 8.47141 -14.8353 -35.1524 -8.67033 42.2583 0.00211422 -17.6218 14.749 2.33937 11.7595 -61.2221 31.2182 4.89684 -1.12074 -33.9271 -0.625595 -53.3621 19.686 -16.8691 -18.7677 -9.27715 37.1771 3.13525 -17.7458 32.3875 
24.3556 40.0946 12.928 3.30792 -8.6767 -137.885 17.3451 -18.8282 21.6514 -8.01113 7.49075 54.5285 7.58401 7.63969 -0.50648 -15.8697 -6.26624 -13.8538 -0.549024 0.00598279 -33.4339 5.67257 7.64313 -0.378251 6.7932 11.5146 -6.80292 9.87124 15.5306 -10.4495 -6.59413 0.577621 -5.69036 84.4878 -53.9308 6.98857 -14.852 -34.5547 -8.55372 47.2958 -1.538 -14.4286 14.9605 2.39038 11.9186 -62.4919 31.52 6.36318 -1.14332 -34.5721 -0.648883 -55.6864 14.5362 -13.7556 -18.6062 -9.46548 37.0726 3.93283 -18.1546 32.5794 
23.7544 39.8511 13.3135 5.26136 -6.02039 -129.939 19.0703 -21.8441 24.849 -10.0229 6.59951 63.5611 8.93935 4.37506 -0.341501 -14.4336 -2.36184 -13.4457 -0.510841 0.00543389 -38.6339 8.59608 7.29966 -0.550487 6.89594 10.6288 -6.52285 10.3118 14.12 -9.99538 -7.70627 0.561698 -5.03725 83.4738 -52.6161 4.88491 -14.7463 -34.7795 -8.53492 47.2889 -1.52913 -14.1718 14.3335 2.27229 11.6265 -62.0579 32.0323 6.41973 -1.00953 -33.8079 -0.561848 -57.1324 10.0419 -10.6184 -18.7028 -9.33008 36.4077 4.45509 -18.199 32.0875 
22.891 39.6282 13.7547 6.5735 -2.85561 -121.245 19.075 -24.845 27.1256 -11.8866 6.10441 72.5777 9.29832 -0.533298 0.0435556 -12.8999 2.35816 -13.36 -0.258356 0.00438593 -43.154 12.4434 7.83342 -0.855045 6.97118 9.83447 -6.38062 10.5393 12.8884 -9.62282 -7.30228 0.432579 -4.01949 80.9142 -52.0213 2.75233 -15.3941 -32.9007 -8.50928 49.6551 -1.41133 -14.2306 15.1182 2.39736 11.8618 -62.4157 33.0953 6.10979 -1.01724 -32.4099 -0.544483 -57.6867 6.93733 -7.67347 -18.1454 -9.44121 35.3562 4.41815 -17.5226 31.2849 
21.7212 39.3829 14.3121 7.11558 0.234461 -112.54 17.5904 -27.0287 29.4294 -13.8552 6.72144 77.4706 7.98069 -4.82837 0.317659 -11.7265 7.142 -14.1542 0.782432 0.023782 -46.7267 15.5003 9.73065 -1.33714 6.48722 8.94144 -6.22111 10.4419 11.6008 -8.88284 -6.19597 0.422047 -4.30792 75.2288 -48.1526 0.586264 -14.6073 -31.9914 -7.85983 49.303 -2.50668 -17.3309 15.8601 2.5398 12.2028 -62.6382 34.7892 5.59041 -1.14778 -30.5259 -0.584214 -56.7356 3.17168 -5.7866 -16.8968 -9.3573 34.2301 3.46744 -16.7638 30.3318 
20.1933 39.1338 15.0815 7.42944 3.42978 -104.388 15.5699 -29.0263 31.5708 -15.9702 11.8017 75.5556 4.92178 -11.7511 0.522009 -10.8121 12.0592 -15.2767 1.68327 -0.254477 -48.4362 17.3781 15.8828 -2.41388 6.45188 7.93324 -5.85503 10.4943 9.97693 -8.2361 -7.31769 0.41013 -3.79634 72.6233 -42.5526 -2.67876 -14.1877 -32.4016 -7.7143 47.8241 -1.49222 -15.9178 15.2101 2.38465 11.739 -62.8287 35.3056 5.75018 -0.99038 -28.738 -0.475596 -56.1303 0.432012 -3.22668 -16.4639 -9.38578 33.5289 2.74034 -16.2565 29.7491 
18.4352 38.791 16.0169 7.2018 6.42575 -96.8311 13.2345 -29.7805 29.9434 -16.3067 17.5667 66.4703 5.07088 -18.2244 0.814773 -10.9972 14.0654 -14.4864 1.51566 3.71293 -46.4153 16.7196 26.0467 -3.91947 6.08325 6.86809 -5.30296 9.9278 8.26739 -7.3954 -7.28646 0.392949 -3.64983 69.916 -35.0023 -6.22988 -14.0913 -30.9975 -7.36852 47.3689 -2.02255 -17.3376 14.7664 2.28929 11.4653 -63.2238 36.252 6.06569 -1.21848 -28.1684 -0.575191 -55.4055 -1.69687 -1.07882 -15.1219 -9.1127 32.6848 1.42042 -15.3611 29.1038 
16.6529 38.2532 16.9926 5.85759 8.85098 -89.2069 10.8084 -29.4693 28.0288 -14.7355 23.9225 58.0405 4.49576 -21.8901 0.864229 -14.3302 3.56637 -12.4457 -1.22601 32.4614 -33.6056 17.4152 33.0272 -5.12519 5.31413 6.46453 -4.84626 8.58362 7.7291 -6.78437 -7.30512 0.408044 -3.78884 70.01 -25.8088 -6.83342 -13.4108 -28.7793 -6.54394 44.922 -4.60962 -21.5754 14.9344 2.29117 11.3762 -64.4291 36.5782 6.71925 -1.32906 -28.904 -0.643855 -59.9993 -4.08811 -3.16451 -13.4585 -9.60858 31.6827 1.51012 -14.5277 28.0762 
